<?xml version="1.0" standalone="no"?>
<!DOCTYPE svg PUBLIC "-//W3C//DTD SVG 20010904//EN"
 "http://www.w3.org/TR/2001/REC-SVG-20010904/DTD/svg10.dtd">
<svg version="1.0" xmlns="http://www.w3.org/2000/svg"
 width="700.000000pt" height="700.000000pt" viewBox="0 0 700.000000 700.000000"
 preserveAspectRatio="xMidYMid meet">
<metadata>
Created by potrace 1.14, written by Peter Selinger 2001-2017
</metadata>
<g transform="translate(0.000000,700.000000) scale(0.100000,-0.100000)"
fill="#000000" stroke="none">
<path d="M4520 6835 c-178 -28 -377 -123 -449 -214 -55 -71 -64 -97 -59 -189
4 -81 4 -83 -16 -79 -12 3 -73 17 -136 32 -515 120 -840 109 -1043 -34 -27
-20 -77 -39 -144 -55 -184 -47 -312 -113 -489 -253 -127 -101 -174 -171 -188
-286 -4 -31 -11 -59 -16 -62 -14 -9 -176 -228 -194 -263 -11 -21 -16 -57 -16
-110 0 -55 -8 -103 -25 -163 -33 -110 -53 -232 -48 -291 4 -42 -1 -60 -51
-160 -89 -181 -149 -427 -166 -678 -5 -74 -8 -144 -7 -155 2 -18 -8 -20 -128
-31 -146 -13 -139 -12 -330 -66 -77 -22 -168 -43 -202 -46 -35 -2 -67 -10 -73
-17 -8 -10 -49 -258 -50 -301 0 -6 17 -33 38 -60 60 -77 63 -93 73 -298 5
-104 16 -225 25 -269 46 -226 180 -450 337 -563 l29 -20 -15 -74 c-33 -167
-31 -267 14 -532 64 -382 227 -672 599 -1061 164 -171 301 -270 513 -372 99
-48 140 -62 265 -87 l147 -30 280 5 c321 6 399 16 745 91 167 36 514 156 632
218 108 57 347 300 423 429 6 10 39 40 75 69 36 28 83 65 105 83 86 68 305
301 366 389 35 51 75 98 89 105 14 7 41 31 61 54 l35 41 67 -22 c60 -20 72
-22 110 -11 59 18 114 56 172 120 l50 56 -68 -63 c-86 -79 -119 -96 -187 -96
-45 0 -65 6 -112 34 -32 19 -60 42 -63 51 -3 8 6 53 20 100 31 103 66 249 94
389 29 148 71 391 71 413 0 12 -16 -1 -49 -40 -26 -32 -147 -155 -267 -274
-121 -118 -247 -252 -281 -296 l-61 -79 -21 -185 c-31 -265 -116 -573 -186
-671 -19 -26 -35 -50 -35 -53 0 -3 -20 -36 -45 -73 -25 -37 -45 -72 -45 -79 0
-6 -4 -15 -10 -18 -6 -4 -8 7 -5 27 l5 33 -11 -30 c-16 -42 -43 -69 -129 -130
-89 -62 -138 -85 -245 -113 -145 -38 -250 -62 -267 -62 -10 0 -18 -4 -18 -10
0 -5 -16 -12 -36 -16 -19 -3 -58 -17 -85 -30 -27 -13 -53 -24 -59 -24 -5 0
-10 -4 -10 -9 0 -5 -12 -11 -27 -14 -31 -6 -200 -63 -248 -83 -41 -17 -223
-60 -310 -73 -229 -35 -595 -46 -692 -22 -53 13 -103 55 -103 86 0 8 -4 16 -8
19 -5 3 -7 -17 -4 -44 2 -28 1 -50 -3 -50 -23 0 -363 241 -437 310 -114 106
-331 361 -511 604 -168 225 -260 455 -274 688 l-6 97 35 35 c30 30 40 34 90
35 53 0 328 44 366 58 9 4 33 24 53 45 22 23 49 40 70 44 92 18 296 157 407
278 47 51 97 86 123 86 14 0 71 108 109 207 8 21 17 30 26 26 8 -3 21 0 29 7
17 14 45 106 45 149 0 68 148 112 238 71 38 -17 51 -55 72 -200 6 -47 23 -137
37 -200 14 -63 26 -122 27 -130 2 -20 80 -172 124 -240 73 -114 207 -232 337
-298 36 -18 76 -49 100 -77 48 -56 76 -71 223 -119 107 -36 119 -38 255 -39
156 -2 215 2 223 15 3 4 14 8 25 8 73 0 369 206 369 257 0 6 6 16 13 20 6 4
18 19 26 33 21 36 51 142 44 153 -3 5 4 21 15 36 26 36 96 175 112 224 6 21
18 41 26 44 18 7 32 54 39 138 19 200 29 222 135 275 43 22 81 43 84 48 8 14
36 250 36 308 l0 52 -72 17 c-105 26 -186 56 -328 120 -297 135 -463 182 -782
222 -126 16 -136 18 -83 21 77 5 330 -15 420 -33 79 -15 177 -54 281 -111 65
-35 74 -37 110 -29 34 9 39 14 42 43 3 29 -5 41 -80 115 -46 46 -94 90 -107
98 l-24 15 37 91 c20 50 39 106 42 124 4 19 27 76 51 127 60 129 90 209 123
339 31 120 60 282 60 338 0 19 3 35 6 35 10 0 124 -83 191 -139 104 -87 196
-255 229 -414 8 -40 19 -180 24 -312 10 -283 18 -324 105 -554 34 -91 88 -246
119 -344 l57 -178 -22 -62 c-55 -155 -97 -282 -94 -285 9 -10 174 173 250 278
138 189 132 184 184 170 37 -10 45 -17 62 -56 11 -24 23 -44 27 -44 11 0 69
296 89 452 24 191 24 691 0 801 -16 78 -16 80 5 120 40 78 23 218 -43 349 -16
31 -29 72 -29 91 0 52 -28 146 -67 222 -50 99 -115 190 -248 345 -63 74 -129
161 -145 192 -17 32 -42 70 -55 86 -38 45 -155 119 -267 168 -57 25 -104 47
-105 48 -4 4 59 91 95 130 79 86 117 181 146 372 21 132 20 247 -1 310 -22 65
-144 189 -228 232 -116 58 -311 104 -433 101 -26 -1 -85 -7 -132 -14z m-2224
-1760 c60 -8 178 -25 261 -39 308 -51 757 -69 1263 -52 412 13 440 5 503 -144
17 -40 50 -137 54 -160 2 -8 4 -24 6 -35 2 -11 6 -29 10 -40 16 -49 34 -296
31 -437 -2 -146 -12 -210 -54 -369 l-10 -36 -107 18 c-125 22 -352 39 -438 34
-33 -2 -119 -6 -191 -9 -176 -8 -233 -19 -262 -52 -17 -20 -22 -34 -17 -53 8
-34 42 -70 80 -85 28 -12 27 -13 -55 -30 -47 -10 -146 -37 -220 -59 -134 -40
-135 -40 -210 -28 -141 23 -285 41 -403 51 l-118 10 -132 76 c-126 72 -130 75
-85 69 66 -10 93 -1 117 39 26 42 27 86 1 119 -55 69 -557 125 -658 73 -17 -9
-35 -16 -40 -16 -11 0 20 247 74 582 53 333 157 508 342 574 49 17 124 17 258
-1z m-625 -1456 c204 -26 346 -89 467 -207 43 -41 55 -55 27 -32 -140 117
-278 153 -420 109 -111 -34 -165 -66 -239 -143 -38 -39 -66 -62 -61 -51 12 29
24 117 31 219 5 73 4 88 -7 84 -9 -3 -17 -27 -21 -64 -4 -32 -14 -119 -22
-192 -23 -196 -27 -188 55 -110 52 48 79 66 98 66 14 0 38 5 54 11 31 12 202
13 232 1 18 -8 17 -9 -6 -9 -49 -2 -163 -43 -217 -78 -92 -62 -162 -164 -162
-238 0 -36 9 -34 58 14 26 26 65 60 87 77 42 33 124 78 131 72 2 -2 -3 -26
-11 -53 -18 -58 -19 -126 -3 -194 18 -79 34 -71 29 16 l-3 75 23 -13 c13 -7
27 -12 32 -11 4 1 21 -27 38 -63 37 -78 61 -99 149 -125 81 -24 111 -25 150
-5 28 14 30 14 30 -2 0 -10 -15 -52 -33 -94 -143 -326 -376 -458 -695 -393
-236 47 -396 211 -468 479 -34 127 -20 512 18 489 7 -5 9 2 4 20 -3 14 -2 26
3 26 5 0 12 12 15 26 11 44 67 150 98 189 17 20 47 47 67 60 32 20 60 28 166
49 43 8 226 5 306 -5z m2259 -254 c264 -42 455 -107 545 -186 76 -67 122 -192
130 -353 l4 -101 -14 97 c-8 53 -23 115 -34 137 -28 53 -99 119 -174 159 -34
19 -84 49 -112 67 -82 53 -122 70 -275 117 -104 31 -380 54 -470 38 -93 -17
-146 -28 -165 -35 -11 -4 0 5 24 19 24 15 69 33 100 40 78 19 324 19 441 1z
m-1903 -196 c30 -62 -38 -130 -96 -98 -35 20 -56 59 -48 91 8 29 28 37 92 34
32 -1 42 -6 52 -27z m1936 -89 c71 -16 151 -42 180 -57 79 -42 161 -98 197
-134 32 -33 80 -102 80 -116 0 -5 -5 0 -11 9 -12 21 -142 120 -214 164 -139
84 -302 134 -439 134 -110 0 -254 -57 -324 -130 -60 -62 -84 -112 -89 -190
l-4 -65 28 50 c47 83 121 163 176 192 29 15 137 45 137 38 0 -1 -15 -34 -32
-71 -30 -62 -33 -78 -33 -159 0 -105 32 -205 66 -205 17 0 17 2 3 35 -19 47
-19 79 2 71 9 -3 22 -6 30 -6 7 0 38 -24 67 -54 l54 -53 126 -7 c140 -8 148
-6 212 54 45 44 115 65 115 36 0 -9 -7 -33 -15 -53 -18 -43 -18 -43 -1 -43 20
0 52 56 67 115 7 28 16 54 19 58 4 4 39 -22 78 -58 57 -53 72 -73 77 -105 4
-21 13 -44 20 -50 10 -9 16 -4 26 24 19 52 21 37 6 -30 -26 -110 -70 -189
-176 -317 -24 -29 -120 -100 -181 -134 -262 -147 -687 -89 -912 125 -21 20
-38 41 -38 47 0 6 -12 22 -26 36 -72 66 -145 296 -170 527 -6 65 5 234 14 197
3 -14 8 -7 16 25 6 25 16 45 21 45 6 0 15 3 21 7 6 4 32 9 58 12 26 2 52 9 59
15 7 5 22 10 32 9 11 -1 46 4 78 11 32 7 61 11 63 8 3 -3 22 -1 42 3 20 5 82
12 137 15 55 4 102 9 105 12 9 10 125 -7 253 -37z m-41 -140 c25 -31 22 -66
-7 -95 -36 -37 -86 -34 -119 6 -32 37 -33 58 -4 94 19 24 26 27 67 22 30 -3
51 -12 63 -27z m-1472 -149 c0 -19 -26 -48 -35 -39 -3 3 0 19 6 36 11 33 29
34 29 3z m-1454 -109 c-5 -5 -36 89 -35 107 0 9 9 -11 19 -44 11 -32 18 -61
16 -63z m3601 -39 c-3 -10 -5 -4 -5 12 0 17 2 24 5 18 2 -7 2 -21 0 -30z
m-1368 -472 c22 -27 28 -39 16 -32 -34 22 -123 148 -125 176 0 5 17 -15 37
-45 20 -30 52 -75 72 -99z"/>
<path d="M6007 2606 c-54 -20 -111 -61 -167 -123 -44 -48 -80 -117 -67 -129 3
-3 36 23 74 57 43 40 95 75 143 97 85 39 110 58 110 82 0 31 -34 37 -93 16z"/>
</g>
</svg>
