<?xml version="1.0" standalone="no"?>
<!DOCTYPE svg PUBLIC "-//W3C//DTD SVG 20010904//EN"
 "http://www.w3.org/TR/2001/REC-SVG-20010904/DTD/svg10.dtd">
<svg version="1.0" xmlns="http://www.w3.org/2000/svg"
 width="512.000000pt" height="512.000000pt" viewBox="0 0 512.000000 512.000000"
 preserveAspectRatio="xMidYMid meet">
<metadata>
Created by potrace 1.14, written by Peter Selinger 2001-2017
</metadata>
<g transform="translate(0.000000,512.000000) scale(0.100000,-0.100000)"
fill="#000000" stroke="none">
<path d="M2230 3934 c0 -3 11 -24 24 -47 55 -98 127 -223 136 -237 5 -8 24
-42 43 -75 42 -74 56 -98 147 -255 40 -69 81 -141 92 -160 11 -19 44 -75 73
-125 47 -81 220 -381 267 -462 43 -76 59 -105 134 -233 43 -75 88 -151 98
-171 l19 -36 -30 -54 c-88 -159 -218 -379 -224 -379 -3 0 -28 37 -54 83 -26
45 -61 103 -76 130 -16 26 -29 50 -29 52 0 3 -11 24 -26 46 -14 22 -33 55 -43
72 -10 18 -60 104 -111 192 -51 88 -102 178 -115 200 -12 22 -45 77 -71 123
-27 46 -53 91 -59 100 -13 23 -147 257 -173 302 -11 19 -40 70 -66 113 -25 43
-46 80 -46 83 0 3 -8 17 -19 32 -18 27 -346 592 -385 665 -11 20 -23 37 -27
37 -6 0 -41 -56 -116 -190 -11 -19 -46 -80 -78 -135 -32 -55 -90 -156 -130
-225 -40 -69 -116 -201 -170 -295 -55 -93 -104 -180 -109 -192 -6 -13 -14 -23
-18 -23 -5 0 -8 -5 -8 -10 0 -10 -615 -1080 -649 -1130 -10 -14 -20 -33 -24
-42 -3 -10 -22 -43 -42 -73 -19 -31 -35 -57 -35 -59 0 -3 -23 -44 -51 -93 -29
-48 -63 -108 -77 -133 -14 -25 -31 -54 -38 -65 -8 -11 -14 -22 -14 -26 0 -4
468 -7 1040 -7 572 0 1040 3 1040 7 0 4 -4 11 -10 17 -8 8 -201 338 -236 404
l-13 25 -520 0 c-287 -1 -521 1 -521 3 0 2 29 51 64 110 35 59 80 139 101 177
21 39 43 77 49 85 6 8 16 24 22 35 17 32 435 756 503 872 20 35 38 63 41 63 3
-1 48 -76 100 -168 52 -92 107 -187 122 -212 24 -41 333 -577 380 -660 53 -92
294 -510 318 -550 15 -25 48 -82 74 -127 l47 -81 254 1 c220 0 257 2 268 16 8
9 69 113 137 231 146 256 287 499 300 520 8 14 34 59 100 175 12 22 61 105
108 185 47 80 92 159 100 175 8 17 23 41 32 55 9 14 30 48 45 75 71 128 161
280 167 283 5 2 8 8 8 13 0 7 104 192 151 269 14 23 189 330 217 380 14 25 32
56 42 70 9 14 31 52 50 85 57 103 70 126 86 151 l16 24 -264 0 -264 0 -25 -50
c-13 -27 -27 -50 -31 -50 -5 0 -8 -4 -8 -9 0 -5 -23 -49 -51 -98 -28 -48 -59
-102 -69 -118 -9 -17 -49 -86 -89 -153 -39 -68 -71 -127 -71 -132 0 -6 -4 -10
-10 -10 -5 0 -10 -4 -10 -9 0 -5 -64 -119 -141 -253 -78 -133 -155 -268 -172
-298 -16 -30 -38 -67 -49 -82 -10 -14 -18 -30 -18 -35 0 -4 -9 -19 -19 -32
l-19 -25 -19 37 c-19 38 -65 119 -305 529 -76 131 -138 239 -138 242 0 3 -18
35 -41 73 -22 37 -45 75 -49 83 -5 8 -37 64 -72 124 -35 60 -78 134 -96 165
-18 31 -37 66 -44 79 -11 22 -12 22 -270 22 -142 0 -258 -3 -258 -6z"/>
</g>
</svg>
